<svg xmlns="http://www.w3.org/2000/svg" viewBox="0 0 372.48 391.68" fill="currentColor" role="img" aria-label="Hammer og palme">
<path transform="matrix(1,0,0,-1,81.7983,157.61829)" d="M0 0 24.833 21 105.167-59.333 83.833-87.333Z"/>
<path transform="matrix(1,0,0,-1,81.7983,157.61829)" stroke-width="1" stroke-linecap="butt" stroke-linejoin="miter" fill="none" stroke="currentColor" d="M0 0 24.833 21 105.167-59.333 83.833-87.333 0 0Z"/>
<g clip-path="url(#clip_1)">
<path transform="matrix(1,0,0,-1,7.7983,171.78499)" d="M0 0C13.833 13.333 23.833 23.833 32.833 31.167 41.833 38.5 57.833 51.5 65.833 56.167 73.833 60.833 82.333 63.833 93.667 66.333 105 68.833 120.333 69.667 128.833 69.833 137.333 70 147.833 70 150.333 69 147.167 67.333 109.333 53.5 90 37.5 70.667 21.5 59 9.333 52.833 3.167 46.667-3 23.667-26.667 23.667-26.667 13.333-13.833 0 0 0 0"/>
<path transform="matrix(1,0,0,-1,7.7983,171.78499)" stroke-width="1" stroke-linecap="butt" stroke-linejoin="miter" fill="none" stroke="currentColor" d="M0 0C13.833 13.333 23.833 23.833 32.833 31.167 41.833 38.5 57.833 51.5 65.833 56.167 73.833 60.833 82.333 63.833 93.667 66.333 105 68.833 120.333 69.667 128.833 69.833 137.333 70 147.833 70 150.333 69 147.167 67.333 109.333 53.5 90 37.5 70.667 21.5 59 9.333 52.833 3.167 46.667-3 23.667-26.667 23.667-26.667 13.333-13.833 0 0 0 0Z"/>
<path transform="matrix(1,0,0,-1,201.215,208.53499)" d="M0 0-13-19.25C-13-19.25-1.75-25.25 1.25-23.5 4.25-21.75 3-26.75 8.25-16.5 13.5-6.25 11.75-7.5 11.75-7.5 11.75-7.5 7.25-1.75 5.75-1.5 4.25-1.25 0 0 0 0"/>
<path transform="matrix(1,0,0,-1,201.215,208.53499)" stroke-width="1" stroke-linecap="butt" stroke-linejoin="miter" fill="none" stroke="currentColor" d="M0 0-13-19.25C-13-19.25-1.75-25.25 1.25-23.5 4.25-21.75 3-26.75 8.25-16.5 13.5-6.25 11.75-7.5 11.75-7.5 11.75-7.5 7.25-1.75 5.75-1.5 4.25-1.25 0 0 0 0Z"/>
<path transform="matrix(1,0,0,-1,183.215,235.03499)" d="M0 0-12.25-16.25C-12.25-16.25 2.25-25.5 3.5-24.5 4.75-23.5 7-28 11.5-18.25 16-8.5 21.25-2.75 21.25-2.75Z"/>
<path transform="matrix(1,0,0,-1,183.215,235.03499)" stroke-width="1" stroke-linecap="butt" stroke-linejoin="miter" fill="none" stroke="currentColor" d="M0 0-12.25-16.25C-12.25-16.25 2.25-25.5 3.5-24.5 4.75-23.5 7-28 11.5-18.25 16-8.5 21.25-2.75 21.25-2.75L0 0Z"/>
<path transform="matrix(1,0,0,-1,189.09,265.035)" d="M0 0-16.625 7.5C-16.625 7.5-21.625 11.5-26.625 5-31.625-1.5-36.625-10.25-36.625-10.25-36.625-10.25-28.125-20.75-14.375-24.25-12.033-24.846 0 0 0 0"/>
<path transform="matrix(1,0,0,-1,189.09,265.035)" stroke-width="1" stroke-linecap="butt" stroke-linejoin="miter" fill="none" stroke="currentColor" d="M0 0-16.625 7.5C-16.625 7.5-21.625 11.5-26.625 5-31.625-1.5-36.625-10.25-36.625-10.25-36.625-10.25-28.125-20.75-14.375-24.25-12.033-24.846 0 0 0 0Z"/>
<path transform="matrix(1,0,0,-1,133.715,299.91)" d="M0 0 18.25-12.75C18.25-12.75 25.125-18.125 28.375-11.125 31.625-4.125 39.125 4.625 39.125 4.625 39.125 4.625 18.75 14.875 18.125 16.75 17.25 18.625 12.125 17.25 12.125 17.25Z"/>
<path transform="matrix(1,0,0,-1,133.715,299.91)" stroke-width="1" stroke-linecap="butt" stroke-linejoin="miter" fill="none" stroke="currentColor" d="M0 0 18.25-12.75C18.25-12.75 25.125-18.125 28.375-11.125 31.625-4.125 39.125 4.625 39.125 4.625 39.125 4.625 18.75 14.875 18.125 16.75 17.25 18.625 12.125 17.25 12.125 17.25L0 0Z"/>
<path transform="matrix(1,0,0,-1,129.84,307.66)" d="M0 0-12.875-17C-12.875-17 7.625-37 9-36.75 10.375-36.5 11.375-38.875 14.625-35.25 17.875-31.625 28-14.375 28-14.375L7.125-1.375C7.125-1.375 1 2.125 0 0"/>
<path transform="matrix(1,0,0,-1,129.84,307.66)" stroke-width="1" stroke-linecap="butt" stroke-linejoin="miter" fill="none" stroke="currentColor" d="M0 0-12.875-17C-12.875-17 7.625-37 9-36.75 10.375-36.5 11.375-38.875 14.625-35.25 17.875-31.625 28-14.375 28-14.375L7.125-1.375C7.125-1.375 1 2.125 0 0Z"/>
<path transform="matrix(1,0,0,-1,93.465,356.41)" d="M0 0C0 0 17.5 24.5 18.125 24.125 18.75 23.75 23.375 23.375 24.875 21.5 26.375 19.625 35.25 12.75 36.5 11.75 37.75 10.75 44.375 4.75 45.625 5.375 46.875 6 33.375-11.75 33.375-11.75 33.375-11.75 31.75-14.375 28-12.375 24.25-10.375 0 0 0 0"/>
<path transform="matrix(1,0,0,-1,93.465,356.41)" stroke-width="1" stroke-linecap="butt" stroke-linejoin="miter" fill="none" stroke="currentColor" d="M0 0C0 0 17.5 24.5 18.125 24.125 18.75 23.75 23.375 23.375 24.875 21.5 26.375 19.625 35.25 12.75 36.5 11.75 37.75 10.75 44.375 4.75 45.625 5.375 46.875 6 33.375-11.75 33.375-11.75 33.375-11.75 31.75-14.375 28-12.375 24.25-10.375 0 0 0 0Z"/>
<path transform="matrix(1,0,0,-1,86.715,365.16)" d="M0 0C0 0-8.375-8.75-8.375-11.75-8.375-14.75 6.5-12.125 6.5-12.125 6.5-12.125 27.25-12.5 30.5-14.25 33.75-16 37.75-10.125 37.75-10.125 37.75-10.125 14.5 0 12.125-.625 9.75-1.25 8.125 .625 0 0"/>
<path transform="matrix(1,0,0,-1,86.715,365.16)" stroke-width="1" stroke-linecap="butt" stroke-linejoin="miter" fill="none" stroke="currentColor" d="M0 0C0 0-8.375-8.75-8.375-11.75-8.375-14.75 6.5-12.125 6.5-12.125 6.5-12.125 27.25-12.5 30.5-14.25 33.75-16 37.75-10.125 37.75-10.125 37.75-10.125 14.5 0 12.125-.625 9.75-1.25 8.125 .625 0 0Z"/>
<path transform="matrix(1,0,0,-1,212.59,187.78499)" d="M0 0C0 0-6.375-13.125-7.375-13.25-8.375-13.375 .875-22.875 .875-22.875 .875-22.875 3.25-21.5 4-20 4.75-18.5 9.625-10 9.625-10 9.625-10 4-5.625 4.375-5.25 4.75-4.875 0 0 0 0"/>
<path transform="matrix(1,0,0,-1,212.59,187.78499)" stroke-width="1" stroke-linecap="butt" stroke-linejoin="miter" fill="none" stroke="currentColor" d="M0 0C0 0-6.375-13.125-7.375-13.25-8.375-13.375 .875-22.875 .875-22.875 .875-22.875 3.25-21.5 4-20 4.75-18.5 9.625-10 9.625-10 9.625-10 4-5.625 4.375-5.25 4.75-4.875 0 0 0 0Z"/>
<path transform="matrix(1,0,0,-1,220.215,172.65999)" d="M0 0-4.625-9.125C-4.625-9.125 1.75-20.125 3.375-20.25 5-20.375 12-4.875 12-4.875Z"/>
<path transform="matrix(1,0,0,-1,220.215,172.65999)" stroke-width="1" stroke-linecap="butt" stroke-linejoin="miter" fill="none" stroke="currentColor" d="M0 0-4.625-9.125C-4.625-9.125 1.75-20.125 3.375-20.25 5-20.375 12-4.875 12-4.875L0 0Z"/>
<path transform="matrix(1,0,0,-1,229.965,155.03499)" d="M0 0C0 0-7.375-10.625-6.875-11.25-6.375-11.875-4.625-14.625-3.5-14.875-2.375-15.125 .375-16.25 .375-16.25 .375-16.25 1.375-17.5 2.375-18 3.375-18.5 11.25-3.5 10.75-3.25 10.25-3 0 0 0 0"/>
<path transform="matrix(1,0,0,-1,229.965,155.03499)" stroke-width="1" stroke-linecap="butt" stroke-linejoin="miter" fill="none" stroke="currentColor" d="M0 0C0 0-7.375-10.625-6.875-11.25-6.375-11.875-4.625-14.625-3.5-14.875-2.375-15.125 .375-16.25 .375-16.25 .375-16.25 1.375-17.5 2.375-18 3.375-18.5 11.25-3.5 10.75-3.25 10.25-3 0 0 0 0Z"/>
<path transform="matrix(1,0,0,-1,235.965,134.91)" d="M0 0C0 0-4-13.625-5.25-13.75-6.5-13.875 1.875-19.5 4.25-18.25 6.625-17 14.25-.75 13.125-.625 12-.5 0 0 0 0"/>
<path transform="matrix(1,0,0,-1,235.965,134.91)" stroke-width="1" stroke-linecap="butt" stroke-linejoin="miter" fill="none" stroke="currentColor" d="M0 0C0 0-4-13.625-5.25-13.75-6.5-13.875 1.875-19.5 4.25-18.25 6.625-17 14.25-.75 13.125-.625 12-.5 0 0 0 0Z"/>
<path transform="matrix(1,0,0,-1,242.465,116.785)" d="M0 0C0 0-4.25-13.625-5-13.625-5.75-13.625 4.5-15.5 7.375-14.75 10.25-14 13.25-2.75 13.25-2.75 13.25-2.75 7 .625 5.625 .125 4.25-.375 5.125 .875 0 0"/>
<path transform="matrix(1,0,0,-1,242.465,116.785)" stroke-width="1" stroke-linecap="butt" stroke-linejoin="miter" fill="none" stroke="currentColor" d="M0 0C0 0-4.25-13.625-5-13.625-5.75-13.625 4.5-15.5 7.375-14.75 10.25-14 13.25-2.75 13.25-2.75 13.25-2.75 7 .625 5.625 .125 4.25-.375 5.125 .875 0 0Z"/>
<path transform="matrix(1,0,0,-1,250.34,100.285)" d="M0 0C0 0-5.125-4-5.25-10.375-5.375-16.75 7.125-13.75 7.125-13.75L12-1.375Z"/>
<path transform="matrix(1,0,0,-1,250.34,100.285)" stroke-width="1" stroke-linecap="butt" stroke-linejoin="miter" fill="none" stroke="currentColor" d="M0 0C0 0-5.125-4-5.25-10.375-5.375-16.75 7.125-13.75 7.125-13.75L12-1.375 0 0Z"/>
<path transform="matrix(1,0,0,-1,251.34,88.535)" d="M0 0C0 0-15.375 15.5-38.875 6.75-62.375-2-72.125-25-72.125-25-72.125-25-82-52.375-66.625-76.125-66.625-76.125-55.5-48-50.625-44.75L-63.25-42-46.5-36.5-62.875-34.75-39.875-29.875C-39.875-29.875-36.125-1.625 0 0"/>
<path transform="matrix(1,0,0,-1,251.34,88.535)" stroke-width="1" stroke-linecap="butt" stroke-linejoin="miter" fill="none" stroke="currentColor" d="M0 0C0 0-15.375 15.5-38.875 6.75-62.375-2-72.125-25-72.125-25-72.125-25-82-52.375-66.625-76.125-66.625-76.125-55.5-48-50.625-44.75L-63.25-42-46.5-36.5-62.875-34.75-39.875-29.875C-39.875-29.875-36.125-1.625 0 0Z"/>
<path transform="matrix(1,0,0,-1,250.465,76.91)" d="M0 0C-.75 .625-13 15.875-42.75 13.25L-46 27.875-49.75 12.125C-49.75 12.125-55.625 12-59 10.625L-65 24.5-66 9.5C-66 9.5-72.5 8-75.875 5.5L-84.125 14.375-84.375 2.625C-84.375 2.625-95.125 1.125-102.75-8.125L-108.5-4.125C-108.5-4.125-89.25 36.125-51.75 42.375-14.25 48.625 0 0 0 0"/>
<path transform="matrix(1,0,0,-1,250.465,76.91)" stroke-width="1" stroke-linecap="butt" stroke-linejoin="miter" fill="none" stroke="currentColor" d="M0 0C-.75 .625-13 15.875-42.75 13.25L-46 27.875-49.75 12.125C-49.75 12.125-55.625 12-59 10.625L-65 24.5-66 9.5C-66 9.5-72.5 8-75.875 5.5L-84.125 14.375-84.375 2.625C-84.375 2.625-95.125 1.125-102.75-8.125L-108.5-4.125C-108.5-4.125-89.25 36.125-51.75 42.375-14.25 48.625 0 0 0 0Z"/>
<path transform="matrix(1,0,0,-1,258.34,71.41)" d="M0 0C0 0-4.75 28.625-15.25 42.625L-6 49.75-17.75 50.5C-17.75 50.5-23.875 62.125-37.75 66.125-37.75 66.125-9.375 68 1.625 44.5 12.625 21 0 0 0 0"/>
<path transform="matrix(1,0,0,-1,258.34,71.41)" stroke-width="1" stroke-linecap="butt" stroke-linejoin="miter" fill="none" stroke="currentColor" d="M0 0C0 0-4.75 28.625-15.25 42.625L-6 49.75-17.75 50.5C-17.75 50.5-23.875 62.125-37.75 66.125-37.75 66.125-9.375 68 1.625 44.5 12.625 21 0 0 0 0Z"/>
<path transform="matrix(1,0,0,-1,263.34,79.16)" d="M0 0C0 0 16.125 4.875 16.875 3.75L24.375 18.5 24.25 7.25C24.25 7.25 30.75 11.5 39.875 11.625L47.25 24.375 49.125 15.5C49.125 15.5 62.5 24.125 64.625 22L65.75 34.125 72.5 26.625 97.375 27.75C97.375 27.75 89.5 47.25 62.25 43.625 35 40 22 29.25 20.375 27.375 18.75 25.5 .375 7 0 0"/>
<path transform="matrix(1,0,0,-1,263.34,79.16)" stroke-width="1" stroke-linecap="butt" stroke-linejoin="miter" fill="none" stroke="currentColor" d="M0 0C0 0 16.125 4.875 16.875 3.75L24.375 18.5 24.25 7.25C24.25 7.25 30.75 11.5 39.875 11.625L47.25 24.375 49.125 15.5C49.125 15.5 62.5 24.125 64.625 22L65.75 34.125 72.5 26.625 97.375 27.75C97.375 27.75 89.5 47.25 62.25 43.625 35 40 22 29.25 20.375 27.375 18.75 25.5 .375 7 0 0Z"/>
<path transform="matrix(1,0,0,-1,264.34,91.16)" d="M0 0C0 0 34.25-31 31.5-31.5 28.75-32 51.5-24.5 51.5-24.5L40.375-36.25 56.25-31.125 46.125-44.125C46.125-44.125 76.875-74 82.5-82.875 82.5-82.875 85.125-44.5 67.875-24.25 50.625-4 0 0 0 0"/>
<path transform="matrix(1,0,0,-1,264.34,91.16)" stroke-width="1" stroke-linecap="butt" stroke-linejoin="miter" fill="none" stroke="currentColor" d="M0 0C0 0 34.25-31 31.5-31.5 28.75-32 51.5-24.5 51.5-24.5L40.375-36.25 56.25-31.125 46.125-44.125C46.125-44.125 76.875-74 82.5-82.875 82.5-82.875 85.125-44.5 67.875-24.25 50.625-4 0 0 0 0Z"/>
<path transform="matrix(1,0,0,-1,193.465,272.285)" d="M0 0C0 0 13 27 15.25 28.5L17.5 30C17.5 30 34 10.5 35.75 10.25 37.5 10 56.5-18.75 58.25-19 60-19.25 105-64.75 105.75-65.75 106.5-66.75 125-85.5 125-85.5 125-85.5 113.5-102 98.25-111 98.25-111 73.5-92.25 72.75-89 72-85.75 45.5-53.25 43.25-52.75 41-52.25 24.25-31.5 20.75-30.25 17.25-29 1.25 1 0 0"/>
<path transform="matrix(1,0,0,-1,193.465,272.285)" stroke-width="1" stroke-linecap="butt" stroke-linejoin="miter" fill="none" stroke="currentColor" d="M0 0C0 0 13 27 15.25 28.5L17.5 30C17.5 30 34 10.5 35.75 10.25 37.5 10 56.5-18.75 58.25-19 60-19.25 105-64.75 105.75-65.75 106.5-66.75 125-85.5 125-85.5 125-85.5 113.5-102 98.25-111 98.25-111 73.5-92.25 72.75-89 72-85.75 45.5-53.25 43.25-52.75 41-52.25 24.25-31.5 20.75-30.25 17.25-29 1.25 1 0 0Z"/>
</svg>
